<svg width="24" height="24" viewBox="0 0 24 24" fill="none" xmlns="http://www.w3.org/2000/svg">
<path d="M3.32996 2.65332H20.3088V5.37132H3.32996V2.65332Z" fill="#1DCE75"/>
<path d="M16.7268 18.5316L17.8296 14.8596H19.2048V6.53882H4.43404V14.8584H5.71204L6.81484 18.5304H2.37964V21.2484H21.2605V18.5304H16.7268V18.5316ZM7.15204 9.25562H16.4868V12.1416H7.15204V9.25562ZM8.75044 14.8596H14.7924L13.5252 18.5316H10.0176L8.75044 14.8596Z" fill="#05C46D"/>
<path d="M16.7268 18.5316L17.8296 14.8596H19.2048V6.53882H4.43404V14.8584H5.71204L6.81484 18.5304H2.37964V21.2484H21.2605V18.5304H16.7268V18.5316ZM7.15204 9.25562H16.4868V12.1416H7.15204V9.25562ZM8.75044 14.8596H14.7924L13.5252 18.5316H10.0176L8.75044 14.8596Z" fill="#05C46D"/>
<path d="M17.5908 15.6552L17.8296 14.8596H18.1764C18.5532 14.3148 18.8964 13.746 19.206 13.1568V6.53882H4.43404V14.8584H5.71204L6.81484 18.5304H2.37964V21.2484H9.25804C12.5988 20.304 15.5016 18.3144 17.5908 15.6552ZM13.524 18.5316H10.0176L8.75044 14.8596H14.7924L13.524 18.5316ZM7.15204 9.25562H16.4868V12.1416H7.15204V9.25562Z" fill="#1DCE75"/>
<path d="M16.3776 2.65332H3.32996V5.37132H15.6636C15.978 4.49652 16.218 3.58812 16.3776 2.65332V2.65332ZM7.15196 12.1417V9.25572H13.6404C14.2451 8.40217 14.7656 7.49189 15.1944 6.53772H4.43396V14.8573H5.71196L5.80916 15.1801C7.74356 14.4961 9.50876 13.4569 11.0268 12.1393H7.15196V12.1417Z" fill="#3CD38E"/>
<path d="M10.14 2.65332H3.32996V5.37132H8.04116C8.83316 4.54332 9.53756 3.63252 10.14 2.65332ZM6.79916 6.53772H4.43396V8.20452C5.27396 7.71972 6.06476 7.16052 6.79916 6.53772Z" fill="#48E1AA"/>
</svg>
