<svg width="24" height="24" viewBox="0 0 24 24" fill="none" xmlns="http://www.w3.org/2000/svg">
<path fill-rule="evenodd" clip-rule="evenodd" d="M4.46715 0.186171C3.30967 0.611367 2.99469 1.05229 2.27817 3.24128C1.85297 4.55625 1.12069 6.40663 0.601 7.49324C0.443507 7.83181 0.333296 8.12318 0.356918 8.1468C0.419885 8.21767 1.40415 7.97355 1.81359 7.79247C2.00256 7.70584 2.38052 7.41452 2.65612 7.14678C3.1207 6.68223 3.34902 6.27276 3.67187 5.32788C3.71911 5.20977 3.85298 5.19404 4.98684 5.19404H6.24667V6.15465C6.24667 7.20978 6.10494 10.509 6.04193 10.9184L6.00259 11.1783H1.38053L1.14431 11.3751C0.900225 11.5799 0.514374 12.3515 0.443507 12.7924L0.396263 13.068L3.06555 13.0838L5.73485 13.1074L5.71122 13.5799C5.60887 15.7216 4.37267 18.635 2.70336 20.6665C2.22306 21.2491 0.845082 22.6114 0.278153 23.068L0.278139 23.068C0.0728681 23.2304 -0.00794364 23.2943 0.000610281 23.3423C0.00616446 23.3734 0.0493959 23.3978 0.120697 23.4381C0.537996 23.6665 2.01046 23.5011 3.1758 23.0917C3.67187 22.9184 3.84508 22.8082 4.2388 22.3988C5.18368 21.4381 6.15218 19.7058 6.72697 17.942L7.06558 16.9027L7.36477 17.2491C7.53802 17.4381 7.82149 17.7767 8.00256 17.9972C9.67973 20.0366 10.1364 20.5956 10.5616 21.1389C11.2388 22.0208 11.4278 22.2413 11.475 22.194C11.5616 22.1153 11.6797 21.0995 11.6797 20.446C11.6797 19.3121 11.6483 19.2492 10.3963 17.7846C9.15218 16.3279 8.40414 15.509 8.33327 15.509C8.30179 15.509 8.04981 15.7059 7.76634 15.9499C7.48288 16.1862 7.2388 16.3673 7.21517 16.3437C7.19941 16.3279 7.23093 16.1547 7.2939 15.9657C7.41201 15.6192 7.70337 14.1074 7.7821 13.4381L7.82935 13.068H12.8687L12.8136 12.5326C12.7821 12.2413 12.7034 11.8239 12.6325 11.6113L12.5065 11.2177L10.2309 11.194L7.95532 11.1783L8.00256 10.3279C8.03408 9.86331 8.08133 8.51685 8.10495 7.33575L8.16006 5.19404H12.3333L12.2939 4.53263C12.2467 3.79244 12.1207 3.46963 11.8372 3.3279C11.6876 3.24914 10.7742 3.22552 8.01046 3.22552H4.38053L4.52226 2.68221C4.60099 2.39088 4.82935 1.69008 5.02619 1.13105C5.22306 0.579847 5.38052 0.0916824 5.38052 0.0601617C5.38052 -0.0579485 4.95532 0.00505588 4.46715 0.186171ZM14.0892 3.1153C14.0026 3.34363 14.0341 20.6271 14.1207 20.7925C14.1994 20.9263 14.2939 20.9421 15.0262 20.9421H15.8451L16.0813 21.7059C16.2152 22.1311 16.3411 22.572 16.3727 22.6901C16.3963 22.8161 16.4435 22.9106 16.475 22.9106C16.5065 22.9106 16.7112 22.8003 16.9238 22.6586C17.0876 22.5532 17.2408 22.4543 17.3847 22.3614C18.6636 21.5356 19.2019 21.188 19.7902 21.0428C20.2179 20.9373 20.672 20.9387 21.4562 20.9412C21.5844 20.9416 21.7215 20.9421 21.8687 20.9421C23.3884 20.9421 23.8057 20.9184 23.8766 20.8318C23.9396 20.7531 23.9553 18.3515 23.9474 11.8791L23.9238 3.02868L19.0341 3.00506C14.6167 2.9893 14.1364 2.99719 14.0892 3.1153ZM21.9553 18.9342V11.9263V4.91844L19.0734 4.89482C17.4908 4.88696 16.1758 4.90268 16.1443 4.9342C16.1128 4.95782 16.0892 8.13104 16.0892 11.9814V18.9736H16.853L16.9789 19.4224C17.0419 19.6744 17.1364 20.0287 17.1915 20.2177L17.2782 20.5562L17.5695 20.383C17.7048 20.295 18.1367 20.0269 18.5852 19.7483C18.6587 19.7027 18.7326 19.6568 18.8057 19.6114L19.7506 19.0129L20.853 18.9736L21.9553 18.9342Z" fill="#1389E9"/>
</svg>
