<svg width="24" height="24" viewBox="0 0 24 24" fill="none" xmlns="http://www.w3.org/2000/svg">
<path d="M9.15401 0C7.71001 0 6.54001 1.658 6.54001 3.707C6.54001 5.758 7.71101 7.417 9.15501 7.417C10.601 7.417 11.769 5.758 11.769 3.707C11.768 1.658 10.6 0 9.15401 0ZM16.179 0.594C14.86 0.58 13.347 2.589 13.2 3.927C13.013 5.672 13.45 7.414 15.379 7.662C17.312 7.912 18.554 5.856 18.801 4.298C19.053 2.743 17.806 0.934 16.439 0.624C16.3533 0.604619 16.2658 0.594561 16.178 0.594H16.179ZM3.58201 5.535C3.52994 5.53622 3.47792 5.53889 3.42601 5.543C1.30801 5.733 0.998009 8.783 0.998009 8.783C0.711009 10.193 1.68401 13.208 4.29501 12.647C6.91201 12.086 6.55701 8.967 6.47801 8.285C6.35301 7.267 5.18601 5.512 3.58201 5.535ZM20.116 7.288C17.808 7.288 17.499 9.407 17.499 10.904C17.499 12.334 17.62 14.329 20.487 14.266C23.354 14.203 23.04 11.028 23.04 10.278C23.04 9.533 22.42 7.288 20.116 7.288ZM11.852 9.766C10.428 9.78 9.14401 10.691 8.52901 11.713C7.41101 13.581 5.66601 14.763 5.41701 15.076C5.16701 15.385 1.80701 17.192 2.55301 20.496C3.29901 23.797 5.91801 23.733 5.91801 23.733C5.91801 23.733 7.84801 23.923 10.089 23.423C12.329 22.928 14.259 23.546 14.259 23.546C14.259 23.546 19.492 25.294 20.924 21.93C22.354 18.566 20.116 16.821 20.116 16.821C20.116 16.821 17.126 14.515 15.38 12.023C14.308 10.358 13.032 9.755 11.852 9.766ZM9.61801 13.606L11.16 13.63V21.827H7.75801C6.28801 21.536 5.70301 20.535 5.62801 20.365C5.55601 20.192 5.14001 19.389 5.36001 18.022C5.99501 15.973 7.80701 15.826 7.80701 15.826H9.61701L9.61801 13.606ZM13.582 15.996V19.877C13.678 20.29 14.194 20.365 14.194 20.365H15.808V16.022H17.497V21.804H13.582C12.065 21.414 11.992 20.339 11.992 20.339V16.022L13.582 15.996ZM8.12401 17.143C7.46401 17.34 7.14601 17.851 7.07401 18.071C6.99801 18.291 6.82701 18.851 6.97401 19.34C7.26801 20.435 8.22201 20.484 8.22201 20.484H9.59201V17.144L8.12401 17.143Z" fill="#039BE5"/>
</svg>
