<svg width="24" height="24" viewBox="0 0 24 24" fill="none" xmlns="http://www.w3.org/2000/svg">
<path d="M14.25 4.0079C14.25 4.20682 14.329 4.39758 14.4696 4.53823C14.6103 4.67889 14.8011 4.7579 15 4.7579C15.1989 4.7579 15.3897 4.67889 15.5303 4.53823C15.671 4.39758 15.75 4.20682 15.75 4.0079V1.2644C15.75 1.06549 15.671 0.874727 15.5303 0.734074C15.3897 0.593422 15.1989 0.514404 15 0.514404C14.8011 0.514404 14.6103 0.593422 14.4696 0.734074C14.329 0.874727 14.25 1.06549 14.25 1.2644V4.0079V4.0079ZM21 4.0604C21.1366 3.91895 21.2122 3.7295 21.2105 3.53285C21.2088 3.33621 21.1299 3.1481 20.9908 3.00904C20.8518 2.86998 20.6637 2.79111 20.467 2.7894C20.2704 2.78769 20.0809 2.86329 19.9395 2.9999L18 4.9394C17.9283 5.00859 17.8712 5.09135 17.8319 5.18285C17.7926 5.27435 17.7719 5.37277 17.771 5.47235C17.7702 5.57194 17.7892 5.6707 17.8269 5.76287C17.8646 5.85504 17.9203 5.93878 17.9907 6.0092C18.0611 6.07962 18.1448 6.13531 18.237 6.17302C18.3292 6.21073 18.4279 6.22971 18.5275 6.22884C18.6271 6.22798 18.7255 6.20729 18.817 6.16798C18.9085 6.12867 18.9913 6.07154 19.0605 5.9999L21 4.0604V4.0604ZM10.9395 5.9999C11.0087 6.07154 11.0914 6.12867 11.1829 6.16798C11.2744 6.20729 11.3728 6.22798 11.4724 6.22884C11.572 6.22971 11.6708 6.21073 11.7629 6.17302C11.8551 6.13531 11.9389 6.07962 12.0093 6.0092C12.0797 5.93878 12.1354 5.85504 12.1731 5.76287C12.2108 5.6707 12.2298 5.57194 12.2289 5.47235C12.2281 5.37277 12.2074 5.27435 12.1681 5.18285C12.1288 5.09135 12.0716 5.00859 12 4.9394L10.0605 2.9999C9.91903 2.86329 9.72958 2.78769 9.53293 2.7894C9.33628 2.79111 9.14817 2.86998 9.00912 3.00904C8.87006 3.1481 8.79118 3.33621 8.78947 3.53285C8.78777 3.7295 8.86336 3.91895 8.99998 4.0604L10.9395 5.9999ZM10.008 9.74991C10.2069 9.74991 10.3977 9.67089 10.5383 9.53024C10.679 9.38958 10.758 9.19882 10.758 8.99991C10.758 8.80099 10.679 8.61023 10.5383 8.46958C10.3977 8.32892 10.2069 8.24991 10.008 8.24991H7.26448C7.06557 8.24991 6.8748 8.32892 6.73415 8.46958C6.5935 8.61023 6.51448 8.80099 6.51448 8.99991C6.51448 9.19882 6.5935 9.38958 6.73415 9.53024C6.8748 9.67089 7.06557 9.74991 7.26448 9.74991H10.008V9.74991ZM22.7355 9.74991C22.9344 9.74991 23.1252 9.67089 23.2658 9.53024C23.4065 9.38958 23.4855 9.19882 23.4855 8.99991C23.4855 8.80099 23.4065 8.61023 23.2658 8.46958C23.1252 8.32892 22.9344 8.24991 22.7355 8.24991H19.992C19.7931 8.24991 19.6023 8.32892 19.4616 8.46958C19.321 8.61023 19.242 8.80099 19.242 8.99991C19.242 9.19882 19.321 9.38958 19.4616 9.53024C19.6023 9.67089 19.7931 9.74991 19.992 9.74991H22.7355ZM19.9395 14.9999C20.0087 15.0715 20.0914 15.1287 20.1829 15.168C20.2744 15.2073 20.3728 15.228 20.4724 15.2288C20.572 15.2297 20.6708 15.2107 20.7629 15.173C20.8551 15.1353 20.9389 15.0796 21.0093 15.0092C21.0797 14.9388 21.1354 14.855 21.1731 14.7629C21.2108 14.6707 21.2298 14.5719 21.2289 14.4724C21.2281 14.3728 21.2074 14.2744 21.1681 14.1829C21.1288 14.0913 21.0716 14.0086 21 13.9394L19.0605 11.9999C18.9913 11.9283 18.9085 11.8711 18.817 11.8318C18.7255 11.7925 18.6271 11.7718 18.5275 11.771C18.4279 11.7701 18.3292 11.7891 18.237 11.8268C18.1448 11.8645 18.0611 11.9202 17.9907 11.9906C17.9203 12.061 17.8646 12.1448 17.8269 12.2369C17.7892 12.3291 17.7702 12.4279 17.771 12.5275C17.7719 12.627 17.7926 12.7255 17.8319 12.817C17.8712 12.9085 17.9283 12.9912 18 13.0604L19.9395 14.9999ZM14.25 16.7354C14.25 16.9343 14.329 17.1251 14.4696 17.2657C14.6103 17.4064 14.8011 17.4854 15 17.4854C15.1989 17.4854 15.3897 17.4064 15.5303 17.2657C15.671 17.1251 15.75 16.9343 15.75 16.7354V13.9919C15.75 13.793 15.671 13.6022 15.5303 13.4616C15.3897 13.3209 15.1989 13.2419 15 13.2419C14.8011 13.2419 14.6103 13.3209 14.4696 13.4616C14.329 13.6022 14.25 13.793 14.25 13.9919V16.7354ZM17.031 9.0899C17.1711 8.94932 17.2498 8.75891 17.2498 8.5604C17.2498 8.3619 17.1711 8.17149 17.031 8.03091L15.969 6.9689C15.8283 6.8283 15.6376 6.74931 15.4387 6.74931C15.2399 6.74931 15.0491 6.8283 14.9085 6.9689L12.969 8.90991C12.8284 9.05055 12.7494 9.24128 12.7494 9.44016C12.7494 9.63903 12.8284 9.82976 12.969 9.9704L14.031 11.0324C14.1716 11.173 14.3624 11.252 14.5612 11.252C14.7601 11.252 14.9508 11.173 15.0915 11.0324L17.031 9.0929V9.0899ZM12.531 13.5899C12.6711 13.4493 12.7498 13.2589 12.7498 13.0604C12.7498 12.8619 12.6711 12.6715 12.531 12.5309L11.469 11.4689C11.3283 11.3283 11.1376 11.2493 10.9387 11.2493C10.7399 11.2493 10.5491 11.3283 10.4085 11.4689L0.96898 20.9099C0.828376 21.0506 0.74939 21.2413 0.74939 21.4402C0.74939 21.639 0.828376 21.8298 0.96898 21.9704L2.03098 23.0324C2.17163 23.173 2.36236 23.252 2.56123 23.252C2.7601 23.252 2.95083 23.173 3.09148 23.0324L12.531 13.5899V13.5899Z" fill="black"/>
</svg>
