<svg width="24" height="24" viewBox="0 0 24 24" fill="none" xmlns="http://www.w3.org/2000/svg">
<g clip-path="url(#clip0_947_1584)">
<path d="M2.3724 7.872L1.0092 9.9144L3.5244 11.436C3.5244 11.436 5.1972 12.2712 4.3956 13.8408C3.654 15.324 0 18.5736 0 18.5736L3.2712 20.5656C5.5392 15.7704 5.3856 16.41 5.9532 14.6844C6.5376 12.9324 6.6672 11.5872 5.6772 10.608C4.404 9.36 4.26 9.2448 2.3712 7.872H2.3724ZM8.5332 3L11.5512 3.8316C11.5512 3.8316 11.3064 4.3992 10.7856 5.28C22.8816 1.9356 23.5944 7.3356 23.5944 7.3356L23.6064 7.3896C23.6988 7.8672 24.3432 11.4816 23.7564 16.9284C23.1204 22.7844 15.3288 20.6028 15.3288 20.6028L15.7488 18.9264L17.5548 19.3056C20.8908 19.5072 20.5668 16.6644 20.5668 16.6644V8.3772C20.5908 5.2308 17.5356 4.8996 12.0528 6.822L13.3344 7.1616C13.2228 7.524 12.8136 8.1 12.2832 8.73H19.6092V10.1784H15.4896V11.9928H19.5948V13.446H15.4908V16.482C16.1028 16.2804 16.6788 16.0116 17.1672 15.6456L16.8072 14.3256L18.7428 13.7316L20.3604 17.5944L17.9736 18.5736L17.55 17.0256C16.4808 17.826 14.2596 18.9888 10.3896 18.8856C6.2472 18.9888 7.3176 14.3256 7.3176 14.3256L7.422 14.268H10.3296C10.3164 14.8716 10.0632 15.8424 10.404 16.3788C10.6896 16.8168 11.4084 16.8924 11.8728 16.9152L12.0348 16.9188V13.446H7.8228V11.9976H12.0348V10.1832H10.956C10.0116 11.1624 9.1416 11.9796 9.1416 11.9796L7.8696 10.8888C8.772 9.96 9.6708 8.484 10.2336 7.5012C9.7632 7.6872 9.2964 7.8804 8.832 8.082C8.3712 8.6628 7.8276 9.2628 7.224 9.852C7.248 9.888 5.1372 8.7 5.1372 8.7C7.1772 7.002 8.3772 3.4776 8.5188 3.0444L8.532 3H8.5332ZM4.1604 3.3396C5.3484 3.3396 6.312 4.1796 6.312 5.226C6.312 6.2628 5.3496 7.1028 4.1604 7.1028C2.9628 7.1028 2.0088 6.258 2.004 5.226C2.004 4.1844 2.9628 3.3396 4.1604 3.3396Z" fill="#FF6F00"/>
</g>
<defs>
<clipPath id="clip0_947_1584">
<rect width="24" height="24" fill="white"/>
</clipPath>
</defs>
</svg>
