<svg width="695" height="702" viewBox="0 0 695 702" fill="none" xmlns="http://www.w3.org/2000/svg">
<path fill-rule="evenodd" clip-rule="evenodd" d="M91.1199 216.19C74.2311 170.639 69.614 73.8751 110.197 33.2922C140.68 43.9631 192.636 81.6419 229.07 114.974C230.992 114.213 232.925 113.466 234.869 112.734C277.906 95.8933 324.062 87.473 373.336 87.473C422.61 87.473 468.765 95.8933 511.802 112.734C516.726 114.661 521.577 116.673 526.354 118.771C562.893 84.5588 617.685 44.3705 649.332 33.2922C693.734 77.6946 684.028 189.351 663.341 227.601C677.228 246.815 689.087 267.779 698.919 290.495C717.631 331.661 726.987 377.192 726.987 427.09C726.987 450.792 724.18 473.869 718.567 496.324C713.577 518.778 705.78 539.984 695.177 559.943C684.574 579.902 670.852 597.99 654.011 614.207C637.171 629.8 617.523 642.587 595.069 652.566V654.437H780.315V766.708H378.949C327.18 766.708 279.154 759.223 234.869 744.254C191.209 728.66 153.473 706.206 121.664 676.891C89.8536 647.576 64.9047 612.024 46.8167 570.235C28.7288 528.445 19.6848 480.73 19.6848 427.09C19.6848 377.192 28.7288 331.349 46.8167 289.559C58.8679 262.645 73.6356 238.189 91.1199 216.19ZM171.25 427.09C171.25 455.782 176.551 482.602 187.154 507.551C197.758 532.499 212.103 554.33 230.191 573.042C248.903 591.129 270.421 605.475 294.747 616.078C319.072 626.682 345.268 631.983 373.336 631.983C401.403 631.983 427.6 626.682 451.925 616.078C476.25 605.475 497.457 591.129 515.545 573.042C534.256 554.33 548.914 532.499 559.517 507.551C570.121 482.602 575.422 455.782 575.422 427.09C575.422 398.399 570.121 371.579 559.517 346.63C548.914 321.681 534.256 300.163 515.545 282.075C497.457 263.363 476.25 248.705 451.925 238.102C427.6 227.499 401.403 222.197 373.336 222.197C345.268 222.197 319.072 227.499 294.747 238.102C270.421 248.705 248.903 263.363 230.191 282.075C212.103 300.163 197.758 321.681 187.154 346.63C176.551 371.579 171.25 398.399 171.25 427.09Z" fill="black" fill-opacity="0.04"/>
</svg>
