<svg width="240" height="60" viewBox="0 0 240 60" fill="none" xmlns="http://www.w3.org/2000/svg">
<path fill-rule="evenodd" clip-rule="evenodd" d="M6.19161 4.61597C3.41548 7.39209 3.73132 14.0114 4.88662 17.1273C3.69058 18.6322 2.68038 20.3052 1.856 22.1463C0.618667 25.0049 0 28.1409 0 31.5543C0 35.2236 0.618667 38.4876 1.856 41.3463C3.09333 44.2049 4.8 46.637 6.976 48.6423C9.152 50.6476 11.7333 52.1836 14.72 53.2503C17.7493 54.2743 21.0347 54.7863 24.576 54.7863H52.032V47.1063H39.36V46.9783C40.896 46.2956 42.24 45.421 43.392 44.3543C44.544 43.245 45.4827 42.0076 46.208 40.6423C46.9333 39.277 47.4667 37.8263 47.808 36.2903C48.192 34.7543 48.384 33.1756 48.384 31.5543C48.384 28.1409 47.744 25.0263 46.464 22.2103C45.7914 20.6564 44.9802 19.2222 44.0302 17.9079C45.4453 15.2914 46.1093 7.65336 43.0719 4.61597C40.907 5.37379 37.1589 8.12293 34.6594 10.4633C34.3326 10.3198 34.0008 10.1821 33.664 10.0503C30.72 8.89828 27.5627 8.32228 24.192 8.32228C20.8213 8.32228 17.664 8.89828 14.72 10.0503C14.587 10.1004 14.4548 10.1515 14.3233 10.2035C11.831 7.92339 8.27682 5.34592 6.19161 4.61597ZM11.456 37.0583C10.7307 35.3516 10.368 33.5169 10.368 31.5543C10.368 29.5916 10.7307 27.757 11.456 26.0503C12.1813 24.3436 13.1627 22.8716 14.4 21.6343C15.68 20.3543 17.152 19.3516 18.816 18.6263C20.48 17.9009 22.272 17.5383 24.192 17.5383C26.112 17.5383 27.904 17.9009 29.568 18.6263C31.232 19.3516 32.6827 20.3543 33.92 21.6343C35.2 22.8716 36.2027 24.3436 36.928 26.0503C37.6533 27.757 38.016 29.5916 38.016 31.5543C38.016 33.5169 37.6533 35.3516 36.928 37.0583C36.2027 38.7649 35.2 40.2583 33.92 41.5383C32.6827 42.7756 31.232 43.757 29.568 44.4823C27.904 45.2076 26.112 45.5703 24.192 45.5703C22.272 45.5703 20.48 45.2076 18.816 44.4823C17.152 43.757 15.68 42.7756 14.4 41.5383C13.1627 40.2583 12.1813 38.7649 11.456 37.0583Z" fill="white
" fill-opacity="1"/>
<path fill-rule="evenodd" clip-rule="evenodd" d="M112.474 50.712H112.346C111.28 52.376 109.85 53.5706 108.058 54.296C106.309 55.0213 104.453 55.384 102.49 55.384C101.04 55.384 99.6318 55.1706 98.2665 54.744C96.9438 54.36 95.7705 53.7626 94.7465 52.952C93.7225 52.1413 92.9118 51.1386 92.3145 49.944C91.7171 48.7493 91.4185 47.3626 91.4185 45.784C91.4185 43.992 91.7385 42.4773 92.3785 41.24C93.0611 40.0026 93.9571 38.9786 95.0665 38.168C96.2185 37.3573 97.5198 36.7386 98.9705 36.312C100.421 35.8426 101.914 35.5013 103.45 35.288C105.029 35.0746 106.586 34.9466 108.122 34.904C109.701 34.8613 111.152 34.84 112.474 34.84C112.474 33.1333 111.856 31.7893 110.618 30.808C109.424 29.784 107.994 29.272 106.33 29.272C104.752 29.272 103.301 29.6133 101.978 30.296C100.698 30.936 99.5465 31.832 98.5225 32.984L93.4025 27.736C95.1945 26.072 97.2851 24.8346 99.6745 24.024C102.064 23.1706 104.538 22.744 107.098 22.744C109.914 22.744 112.218 23.1066 114.01 23.832C115.845 24.5146 117.296 25.5386 118.362 26.904C119.472 28.2693 120.24 29.9546 120.666 31.96C121.093 33.9226 121.306 36.2053 121.306 38.808V54.616H112.474V50.712ZM110.106 40.984C109.381 40.984 108.464 41.0266 107.354 41.112C106.288 41.1546 105.242 41.3253 104.218 41.624C103.237 41.9226 102.384 42.3706 101.658 42.968C100.976 43.5653 100.634 44.3973 100.634 45.464C100.634 46.616 101.125 47.4693 102.106 48.024C103.088 48.5786 104.112 48.856 105.178 48.856C106.117 48.856 107.013 48.728 107.866 48.472C108.762 48.216 109.552 47.8533 110.234 47.384C110.917 46.9146 111.45 46.3173 111.834 45.592C112.261 44.8666 112.474 44.0133 112.474 43.032V40.984H110.106Z" fill="white" fill-opacity="1"/>
<path d="M86.1565 54.616H76.9405V50.392H76.8125C76.4711 50.9893 76.0231 51.5866 75.4685 52.184C74.9565 52.7813 74.3165 53.3146 73.5485 53.784C72.7805 54.2533 71.9058 54.6373 70.9245 54.936C69.9431 55.2346 68.8765 55.384 67.7245 55.384C65.2925 55.384 63.3085 55.0213 61.7725 54.296C60.2791 53.528 59.1058 52.4826 58.2525 51.16C57.4418 49.8373 56.8871 48.28 56.5885 46.488C56.3325 44.696 56.2045 42.7546 56.2045 40.664V23.512H65.8045V38.744C65.8045 39.64 65.8258 40.5786 65.8685 41.56C65.9538 42.4986 66.1458 43.3733 66.4445 44.184C66.7858 44.9946 67.2765 45.656 67.9165 46.168C68.5991 46.68 69.5591 46.936 70.7965 46.936C72.0338 46.936 73.0365 46.7226 73.8045 46.296C74.5725 45.8266 75.1485 45.2293 75.5325 44.504C75.9591 43.736 76.2365 42.8826 76.3645 41.944C76.4925 41.0053 76.5565 40.024 76.5565 39V23.512H86.1565V54.616Z" fill="white" fill-opacity="1"/>
<path d="M139.361 30.04C141.665 30.04 143.521 30.9146 144.929 32.664L150.817 26.84C149.367 25.304 147.596 24.2373 145.505 23.64C143.415 23.0426 141.345 22.744 139.297 22.744C137.676 22.744 136.076 22.9573 134.497 23.384C132.919 23.768 131.511 24.3866 130.273 25.24C129.079 26.0933 128.097 27.1813 127.329 28.504C126.604 29.8266 126.241 31.4053 126.241 33.24C126.241 35.2026 126.625 36.7813 127.393 37.976C128.204 39.128 129.207 40.024 130.401 40.664C131.639 41.304 132.94 41.7946 134.305 42.136C135.713 42.4346 137.015 42.7333 138.209 43.032C139.447 43.288 140.449 43.6293 141.217 44.056C142.028 44.44 142.433 45.0373 142.433 45.848C142.433 46.7013 141.985 47.2986 141.089 47.64C140.193 47.9386 139.191 48.088 138.081 48.088C136.631 48.088 135.351 47.8106 134.241 47.256C133.175 46.6586 132.193 45.8053 131.297 44.696L125.473 51.16C127.009 52.7386 128.887 53.848 131.105 54.488C133.324 55.0853 135.521 55.384 137.697 55.384C139.361 55.384 141.047 55.2133 142.753 54.872C144.46 54.5733 145.996 54.04 147.361 53.272C148.727 52.4613 149.836 51.416 150.689 50.136C151.585 48.8133 152.033 47.1493 152.033 45.144C152.033 43.1813 151.628 41.624 150.817 40.472C150.049 39.2773 149.047 38.3386 147.809 37.656C146.615 36.9733 145.313 36.4826 143.905 36.184C142.54 35.8426 141.239 35.544 140.001 35.288C138.807 34.9893 137.804 34.6693 136.993 34.328C136.225 33.944 135.841 33.368 135.841 32.6C135.841 31.6613 136.225 31 136.993 30.616C137.761 30.232 138.551 30.04 139.361 30.04Z" fill="white" fill-opacity="1"/>
<path fill-rule="evenodd" clip-rule="evenodd" d="M176.474 50.712H176.346C175.28 52.376 173.85 53.5706 172.058 54.296C170.309 55.0213 168.453 55.384 166.49 55.384C165.04 55.384 163.632 55.1706 162.266 54.744C160.944 54.36 159.77 53.7626 158.746 52.952C157.722 52.1413 156.912 51.1386 156.314 49.944C155.717 48.7493 155.418 47.3626 155.418 45.784C155.418 43.992 155.738 42.4773 156.378 41.24C157.061 40.0026 157.957 38.9786 159.066 38.168C160.218 37.3573 161.52 36.7386 162.97 36.312C164.421 35.8426 165.914 35.5013 167.45 35.288C169.029 35.0746 170.586 34.9466 172.122 34.904C173.701 34.8613 175.152 34.84 176.474 34.84C176.474 33.1333 175.856 31.7893 174.618 30.808C173.424 29.784 171.994 29.272 170.33 29.272C168.752 29.272 167.301 29.6133 165.978 30.296C164.698 30.936 163.546 31.832 162.522 32.984L157.402 27.736C159.194 26.072 161.285 24.8346 163.674 24.024C166.064 23.1706 168.538 22.744 171.098 22.744C173.914 22.744 176.218 23.1066 178.01 23.832C179.845 24.5146 181.296 25.5386 182.362 26.904C183.472 28.2693 184.24 29.9546 184.666 31.96C185.093 33.9226 185.306 36.2053 185.306 38.808V54.616H176.474V50.712ZM174.106 40.984C173.381 40.984 172.464 41.0266 171.354 41.112C170.288 41.1546 169.242 41.3253 168.218 41.624C167.237 41.9226 166.384 42.3706 165.658 42.968C164.976 43.5653 164.634 44.3973 164.634 45.464C164.634 46.616 165.125 47.4693 166.106 48.024C167.088 48.5786 168.112 48.856 169.178 48.856C170.117 48.856 171.013 48.728 171.866 48.472C172.762 48.216 173.552 47.8533 174.234 47.384C174.917 46.9146 175.45 46.3173 175.834 45.592C176.261 44.8666 176.474 44.0133 176.474 43.032V40.984H174.106Z" fill="white" fill-opacity="1"/>
<path d="M200.929 23.512H191.329V54.616H200.929V41.624C200.929 40.088 201.015 38.68 201.185 37.4C201.356 36.12 201.719 35.032 202.273 34.136C202.871 33.1973 203.703 32.472 204.769 31.96C205.836 31.448 207.287 31.192 209.121 31.192C209.847 31.192 210.529 31.256 211.169 31.384C211.852 31.4693 212.535 31.6186 213.217 31.832V23.064C212.748 22.936 212.236 22.8506 211.681 22.808C211.127 22.7653 210.572 22.744 210.017 22.744C207.884 22.744 206.113 23.2346 204.705 24.216C203.297 25.1546 202.081 26.584 201.057 28.504H200.929V23.512Z" fill="white" fill-opacity="1"/>
<path d="M228.217 49.884C228.217 52.9216 225.755 55.384 222.717 55.384C219.68 55.384 217.217 52.9216 217.217 49.884C217.217 46.8465 219.68 44.384 222.717 44.384C225.755 44.384 228.217 46.8465 228.217 49.884Z" fill="#2196F3"/>
</svg>
