<svg width="761" height="734" viewBox="0 0 761 734" fill="none" xmlns="http://www.w3.org/2000/svg">
<path fill-rule="evenodd" clip-rule="evenodd" d="M71.4351 182.898C54.5463 137.347 49.9292 40.5828 90.5121 0C120.995 10.6708 172.952 48.3497 209.386 81.6816C211.307 80.9209 213.24 80.1742 215.184 79.4416C258.221 62.6011 304.377 54.1808 353.651 54.1808C402.925 54.1808 449.081 62.6011 492.118 79.4416C497.042 81.3684 501.892 83.3809 506.669 85.4792C543.208 51.2666 598 11.0783 629.647 2.04658e-06C674.049 44.4024 664.343 156.059 643.657 194.308C657.543 213.522 669.402 234.487 679.235 257.203C697.946 298.368 707.302 343.9 707.302 393.798C707.302 417.5 704.495 440.577 698.882 463.031C693.892 485.485 686.096 506.692 675.492 526.651C664.889 546.61 651.167 564.698 634.326 580.915C617.486 596.508 597.839 609.294 575.385 619.274V621.145H760.63V733.415H359.265C307.496 733.415 259.469 725.931 215.184 710.961C171.524 695.368 133.789 672.914 101.979 643.599C70.1689 614.284 45.2199 578.732 27.132 536.943C9.04399 495.153 0 447.438 0 393.798C0 343.9 9.04399 298.057 27.132 256.267C39.1831 229.353 53.9509 204.896 71.4351 182.898ZM151.565 393.798C151.565 422.489 156.866 449.309 167.47 474.258C178.073 499.207 192.419 521.038 210.507 539.749C229.218 557.837 250.737 572.183 275.062 582.786C299.387 593.389 325.583 598.691 353.651 598.691C381.719 598.691 407.915 593.389 432.24 582.786C456.565 572.183 477.772 557.837 495.86 539.749C514.572 521.038 529.229 499.207 539.832 474.258C550.436 449.309 555.737 422.489 555.737 393.798C555.737 365.107 550.436 338.287 539.832 313.338C529.229 288.389 514.572 266.87 495.86 248.782C477.772 230.071 456.565 215.413 432.24 204.81C407.915 194.207 381.719 188.905 353.651 188.905C325.583 188.905 299.387 194.207 275.062 204.81C250.737 215.413 229.218 230.071 210.507 248.782C192.419 266.87 178.073 288.389 167.47 313.338C156.866 338.287 151.565 365.107 151.565 393.798Z" fill="white" fill-opacity="0.01"/>
</svg>
